<svg width="689" height="157" viewBox="0 0 689 157" fill="none" xmlns="http://www.w3.org/2000/svg">
<path d="M329.968 38.0947L288.399 99.776L274.073 38.0947H234.731L218.216 120.663H238.333L251.192 58.736L237.511 54.6093H262.859L277.959 120.663H295.949L337.173 54.6093L330.147 120.663H344.787L355.939 38.0947H329.968ZM194.093 38.0947L181.827 100.889C181.669 101.523 181.335 102.052 180.82 102.481C180.313 102.916 179.741 103.131 179.115 103.131H127.276L135.717 99.0053L147.508 38.0947H128.104L114.889 104.148C114.495 106.275 114.575 108.337 115.124 110.343C115.673 112.348 116.559 114.117 117.779 115.651C118.999 117.187 120.532 118.405 122.381 119.307C124.229 120.212 126.251 120.663 128.455 120.663H185.664C188.967 120.663 191.895 119.641 194.455 117.599C197.005 115.552 198.603 112.877 199.231 109.577L213.504 38.0947H194.093ZM16.5147 38.0947L0 120.663H16.156L20.8733 97.3093H63.7373L74.236 120.663H91.928L81.4293 97.3093H89.7653C93.0707 97.3093 95.976 96.268 98.4947 94.1826C101.013 92.1 102.584 89.4453 103.212 86.22L109.585 54.4894C109.977 52.3694 109.899 50.3227 109.348 48.3574C108.799 46.3894 107.915 44.6413 106.695 43.1066C105.473 41.5733 103.94 40.3574 102.092 39.4507C100.243 38.5467 98.2173 38.0947 96.0173 38.0947H16.5147ZM27.0147 58.3853L18.036 52.332H91.604C92.6067 52.332 93.4027 52.824 93.9987 53.8C94.5867 54.7826 94.7933 55.904 94.6107 57.172L91.1907 79.4986C91.0093 80.4213 90.62 81.1653 90.024 81.7413C89.4347 82.3266 88.772 82.6107 88.044 82.6107H23.18L27.0147 58.3853Z" fill="url(#paint0_linear_1_86)"/>
<path d="M472.113 38.016C468.729 38.6173 465.315 39.2187 462.023 40.1694C462.023 40.1694 429.557 49.6693 408.676 56.7626C387.764 63.8573 355.939 59.8346 355.939 59.8346C359.932 65.3453 376.943 67.2774 376.943 67.2774C360.176 75.1934 358.623 91.788 358.623 91.788H361.243C361.243 91.788 369.383 72.6907 391.635 73.3574C413.889 73.9894 421.083 91.8187 421.083 91.8187L515.888 91.5667L422.485 85.5493C417.089 70.1907 402.579 66.3587 402.579 66.3587C419.405 61.1013 441.203 61.7973 441.203 61.7973C441.203 61.7973 459.004 61.5773 474.339 67.4347C489.672 73.3253 506.743 73.7053 506.743 73.7053L623.587 71.6786C609.777 75.9546 605.021 89.3493 605.021 89.3493L551.676 94.384L606.639 94.8587C606.639 94.8587 614.96 78.644 634.256 79.0253C653.523 79.4053 660.777 96.7267 660.777 96.7267H663.491C662.211 81.2733 647.151 73.1667 647.151 73.1667C666.539 76.872 688.975 92.8014 688.975 92.8014C663.552 62.9067 624.471 66.4854 624.471 66.4854C624.471 66.4854 599.809 67.3387 589.628 66.4854C579.477 65.6614 578.136 64.68 578.136 64.68C576.245 63.2867 573.837 62.3053 571.765 61.196C569.692 60.12 567.619 59.0107 565.515 57.9347C561.735 56.0027 557.895 54.1013 554.023 52.2973C545.305 48.212 536.372 44.508 527.259 41.5627C523.203 40.2653 519.088 39.06 514.943 38.1427C508.103 36.668 501.035 36 493.963 36C486.6 36 479.235 36.724 472.113 38.016M458.212 48.4653C469.613 45.0147 481.503 42.132 493.452 41.8787C500.28 41.72 507.169 42.6707 513.905 44C523.479 45.8707 532.899 48.656 541.951 52.456C546.645 54.4507 551.248 56.7 555.669 59.2333C558.047 60.5947 560.364 62.02 562.649 63.54C563.777 64.3 564.905 65.092 566.003 65.884C566.673 66.3586 568.595 68.4173 569.325 68.4173H551.463C541.22 68.4173 531.008 68.4173 520.765 68.384C510.461 68.384 499.945 66.7067 490.007 63.8574C487.843 63.2547 485.708 62.5586 483.636 61.7973C477.417 59.5173 471.045 57.7453 464.583 56.4453C460.621 55.6227 456.596 54.9893 452.543 54.6093C448.64 54.2293 444.647 54.4827 440.715 54.5147C446.445 52.1707 452.329 50.2387 458.212 48.4653" fill="url(#paint1_linear_1_86)"/>
<path d="M667.011 98.9827L663.123 120.663H668.956L670.065 114.528H677.172L679.643 120.663H685.475L683.004 114.528H684.255C685.031 114.528 685.716 114.256 686.307 113.711C686.9 113.161 687.268 112.467 687.42 111.619L688.917 103.287C689.008 102.732 688.993 102.193 688.863 101.68C688.731 101.16 688.524 100.701 688.237 100.299C687.949 99.8947 687.591 99.5774 687.153 99.34C686.719 99.1027 686.24 98.9827 685.727 98.9827H667.011ZM671.733 105.116L668.512 104.033H682.172C682.373 104.033 682.536 104.119 682.657 104.296C682.777 104.472 682.817 104.673 682.783 104.9L682.087 108.893C682.052 109.059 681.971 109.195 681.851 109.296C681.729 109.401 681.597 109.452 681.447 109.452H670.952L671.733 105.116ZM631.419 98.9827C630.641 98.9827 629.951 99.2493 629.351 99.788C628.745 100.328 628.372 101.029 628.227 101.896L624.865 120.663H630.697L631.805 114.528H640.219L639.111 120.663H644.937L648.047 103.287C648.159 102.732 648.147 102.193 648.021 101.68C647.891 101.16 647.684 100.701 647.396 100.299C647.109 99.8947 646.747 99.5774 646.312 99.34C645.88 99.1027 645.4 98.9827 644.881 98.9827H631.419ZM633.473 105.116L630.253 104.033H641.303C641.504 104.033 641.671 104.119 641.801 104.296C641.932 104.472 641.979 104.673 641.943 104.9L641.136 109.452H632.692L633.473 105.116ZM592.519 98.9827C591.743 98.9827 591.057 99.2493 590.467 99.788C589.872 100.328 589.504 101.029 589.353 101.896L586.661 116.851C586.571 117.351 586.58 117.824 586.692 118.279C586.803 118.732 586.984 119.14 587.247 119.503C587.503 119.861 587.831 120.148 588.22 120.355C588.607 120.561 589.02 120.663 589.464 120.663H603.931C604.707 120.663 605.392 120.395 605.988 119.856C606.577 119.323 606.951 118.616 607.096 117.749L607.873 113.444H602.045L601.768 115.027C601.672 115.42 601.461 115.616 601.128 115.616H593.523C593.315 115.616 593.149 115.527 593.019 115.351C592.892 115.179 592.847 114.977 592.881 114.744L594.601 105.116L591.353 104.033H603.069C603.276 104.033 603.441 104.119 603.573 104.296C603.699 104.472 603.744 104.673 603.709 104.9L603.457 106.2H609.289L609.819 103.287C609.929 102.732 609.919 102.193 609.788 101.68C609.663 101.16 609.445 100.701 609.153 100.299C608.856 99.8947 608.487 99.5774 608.055 99.34C607.621 99.1027 607.152 98.9827 606.652 98.9827H592.519ZM534.076 98.9827C533.3 98.9827 532.611 99.2493 532.011 99.788C531.405 100.328 531.032 101.029 530.885 101.896L527.524 120.663H533.355L534.465 114.528H542.877L541.768 120.663H547.596L550.707 103.287C550.816 102.732 550.807 102.193 550.681 101.68C550.551 101.16 550.343 100.701 550.056 100.299C549.769 99.8947 549.405 99.5774 548.972 99.34C548.539 99.1027 548.06 98.9827 547.54 98.9827H534.076ZM536.133 105.116L532.912 104.033H543.961C544.163 104.033 544.329 104.119 544.46 104.296C544.592 104.472 544.636 104.673 544.601 104.9L543.795 109.452H535.352L536.133 105.116ZM471.889 98.9827L470.972 104.033H477.832L474.859 120.663H481.331L484.133 105.116L480.881 104.033H490.797L491.715 98.9827H471.889ZM449.145 98.9827L446.096 116.141L443.011 98.9827H432.96L429.075 120.663H434.907L437.795 104.587L434.543 103.504H437.985L441.071 120.663H451.092L454.977 98.9827H449.145ZM396.621 98.9827L393.511 116.327C393.421 116.881 393.435 117.427 393.567 117.951C393.699 118.48 393.904 118.944 394.192 119.347C394.479 119.751 394.841 120.067 395.276 120.305C395.709 120.541 396.188 120.663 396.708 120.663H410.892L411.779 115.616H400.287C400.084 115.616 399.917 115.527 399.787 115.351C399.656 115.179 399.611 114.977 399.647 114.744L400.095 112.179H410.504L411.336 107.471H400.952L401.369 105.116L398.119 104.033H413.865L414.779 98.9827H396.621ZM356.473 98.9827L352.587 120.663H358.419L359.527 114.528H366.635L369.104 120.663H374.936L372.467 114.528H373.717C374.493 114.528 375.179 114.256 375.768 113.711C376.363 113.161 376.732 112.467 376.883 111.619L378.379 103.287C378.471 102.732 378.455 102.193 378.324 101.68C378.193 101.16 377.987 100.701 377.699 100.299C377.412 99.8947 377.055 99.5774 376.615 99.34C376.181 99.1027 375.703 98.9827 375.188 98.9827H356.473ZM361.196 105.116L357.975 104.033H371.635C371.836 104.033 371.997 104.119 372.119 104.296C372.24 104.472 372.28 104.673 372.244 104.9L371.549 108.893C371.513 109.059 371.433 109.195 371.312 109.296C371.191 109.401 371.06 109.452 370.909 109.452H360.413L361.196 105.116Z" fill="url(#paint2_linear_1_86)"/>
<defs>
<linearGradient id="paint0_linear_1_86" x1="-1.46667e-05" y1="79.3789" x2="355.939" y2="79.3789" gradientUnits="userSpaceOnUse">
<stop stop-color="#9A722D"/>
<stop offset="0.27607" stop-color="#D9B058"/>
<stop offset="0.302067" stop-color="#D9B058"/>
<stop offset="0.51676" stop-color="#ECDC96"/>
<stop offset="0.719665" stop-color="#D9B058"/>
<stop offset="0.99546" stop-color="#8A6321"/>
<stop offset="1" stop-color="#8A6321"/>
</linearGradient>
<linearGradient id="paint1_linear_1_86" x1="688.975" y1="66.3636" x2="355.939" y2="66.3636" gradientUnits="userSpaceOnUse">
<stop stop-color="#9A722D"/>
<stop offset="0.27607" stop-color="#D9B058"/>
<stop offset="0.302067" stop-color="#D9B058"/>
<stop offset="0.51676" stop-color="#ECDC96"/>
<stop offset="0.719665" stop-color="#D9B058"/>
<stop offset="0.99546" stop-color="#8A6321"/>
<stop offset="1" stop-color="#8A6321"/>
</linearGradient>
<linearGradient id="paint2_linear_1_86" x1="352.586" y1="109.822" x2="688.975" y2="109.822" gradientUnits="userSpaceOnUse">
<stop stop-color="#9A722D"/>
<stop offset="0.27607" stop-color="#D9B058"/>
<stop offset="0.302067" stop-color="#D9B058"/>
<stop offset="0.51676" stop-color="#ECDC96"/>
<stop offset="0.719665" stop-color="#D9B058"/>
<stop offset="0.99546" stop-color="#8A6321"/>
<stop offset="1" stop-color="#8A6321"/>
</linearGradient>
</defs>
</svg>
