<?xml version="1.0" standalone="no"?>
<!DOCTYPE svg PUBLIC "-//W3C//DTD SVG 20010904//EN"
 "http://www.w3.org/TR/2001/REC-SVG-20010904/DTD/svg10.dtd">
<svg version="1.0" xmlns="http://www.w3.org/2000/svg"
 width="531.000000pt" height="531.000000pt" viewBox="0 0 531.000000 531.000000"
 preserveAspectRatio="xMidYMid meet">
<metadata>
Created by potrace 1.14, written by Peter Selinger 2001-2017
</metadata>
<g transform="translate(0.000000,531.000000) scale(0.100000,-0.100000)"
fill="#000000" stroke="none">
<path d="M1 3333 c1 -1088 5 -1962 9 -1943 4 19 16 79 25 132 l17 98 128 0
c71 0 135 2 143 5 7 3 24 -3 37 -13 l24 -20 -14 -88 c-14 -84 -17 -90 -46
-105 -31 -15 -31 -16 -18 -48 20 -47 18 -51 -23 -51 -36 0 -39 3 -60 50 l-22
50 -55 0 -55 0 -7 -50 -7 -50 -38 0 -39 0 0 -650 0 -650 2655 0 2655 0 0 2655
0 2655 -2655 0 -2655 0 1 -1977z m2593 682 c242 -32 552 -147 941 -351 139
-72 141 -73 250 -84 62 -6 248 -10 430 -9 270 2 334 0 409 -15 131 -25 239
-62 347 -117 87 -45 96 -52 91 -74 l-4 -24 -57 28 c-76 39 -237 98 -286 106
l-40 6 25 -18 c48 -34 123 -108 151 -149 25 -36 69 -147 69 -174 0 -25 -37 -7
-53 25 -21 45 -90 119 -142 154 -182 124 -428 92 -584 -74 -33 -36 -61 -70
-61 -75 0 -11 -625 -12 -675 -1 -17 3 105 18 290 34 176 16 327 31 336 33 9 3
33 31 52 62 45 74 122 146 190 178 l52 25 -425 -6 c-234 -3 -629 -10 -877 -16
-568 -12 -638 -5 -926 87 -75 24 -177 51 -225 60 -121 21 -373 29 -517 15
-123 -11 -325 -49 -325 -60 0 -3 26 -17 57 -31 77 -33 173 -124 209 -199 l29
-59 100 -6 c55 -3 318 -19 585 -36 267 -16 503 -31 525 -33 22 -2 -246 -4
-595 -5 l-635 -2 -20 36 c-26 48 -135 149 -195 179 -60 30 -158 55 -222 55
-26 0 -50 5 -54 12 -4 7 -3 8 4 4 8 -5 10 -2 6 8 -3 9 -11 13 -17 9 -6 -3 -7
-1 -3 6 12 18 18 94 8 87 -4 -3 -6 8 -4 24 4 26 9 30 51 35 122 15 188 31 341
80 656 212 823 256 1060 278 91 9 229 6 334 -8z m-1003 -1060 c51 -36 88 -104
89 -162 0 -36 -54 -322 -95 -501 -29 -124 -95 -172 -237 -172 l-86 0 68 -151
c38 -83 72 -159 75 -170 6 -19 1 -19 -121 -17 l-128 3 -75 168 -75 167 -318 0
-317 0 -11 -57 c-31 -150 -59 -275 -63 -279 -2 -3 -54 -3 -114 -2 l-109 3 117
594 c72 360 123 598 131 603 7 4 286 7 620 6 l606 -3 43 -30z m638 13 c0 -13
-37 -214 -82 -447 l-83 -424 -59 -31 -60 -31 385 -3 c300 -2 387 1 397 10 7 8
38 141 68 298 31 157 72 367 92 468 l36 182 143 0 c130 0 142 -1 138 -17 -2
-10 -49 -245 -104 -523 -56 -278 -106 -522 -112 -542 -6 -21 -25 -52 -42 -69
-62 -64 -52 -63 -576 -60 l-475 2 -42 25 c-46 26 -75 68 -92 129 -10 38 21
216 180 1003 l10 52 140 0 c138 0 139 0 138 -22z m1889 -65 c11 -49 57 -251
103 -450 46 -200 88 -362 92 -360 4 1 143 202 307 446 l299 443 188 -1 c103
-1 188 -3 189 -4 1 -1 -35 -271 -80 -599 l-81 -598 -102 0 c-70 0 -103 4 -103
11 0 6 23 223 51 481 27 259 48 472 46 474 -2 2 -65 -96 -140 -219 -75 -122
-210 -339 -300 -482 l-163 -260 -134 0 -134 0 -109 475 c-60 261 -112 478
-116 483 -4 4 -86 6 -182 5 l-174 -3 93 -29 c89 -29 93 -31 88 -55 -129 -627
-179 -867 -185 -873 -11 -12 -291 -16 -291 -4 0 6 54 278 120 605 66 327 120
596 120 598 0 2 130 3 289 3 l288 0 21 -87z m-3184 -1300 c-3 -16 -7 -34 -10
-40 -2 -9 -35 -13 -116 -14 -62 -1 -105 -3 -95 -6 9 -2 17 -13 17 -24 0 -17 8
-19 76 -19 l75 0 -3 -32 -3 -33 -82 -3 -83 -3 0 -29 0 -30 90 0 c95 0 96 -1
84 -48 -6 -22 -9 -23 -127 -20 -101 3 -122 6 -131 20 -8 13 -5 52 13 155 13
76 25 141 28 146 2 4 65 7 139 7 l134 0 -6 -27z m444 -20 c6 -27 16 -83 23
-126 6 -43 15 -75 18 -71 3 3 15 58 26 122 l20 117 43 3 c23 2 42 0 42 -5 0
-4 -12 -79 -27 -165 l-28 -158 -76 0 -76 0 -23 130 c-23 128 -24 130 -49 129
l-26 0 24 -10 c17 -7 22 -15 18 -32 -3 -12 -13 -66 -22 -119 l-17 -98 -44 0
c-24 0 -44 1 -44 3 0 1 14 74 30 162 16 88 30 161 30 163 0 1 33 2 74 2 l74 0
10 -47z m732 23 c0 -50 -8 -56 -79 -57 -36 -1 -58 -3 -48 -6 13 -3 17 -11 14
-26 -3 -12 -13 -66 -22 -119 l-17 -98 -50 0 c-49 0 -50 0 -44 28 11 47 36 196
36 210 0 8 -17 12 -51 12 -48 0 -51 1 -45 23 3 12 6 30 6 40 0 15 14 17 150
17 l150 0 0 -24z m895 4 c19 -21 16 -48 -26 -257 l-10 -53 -45 0 c-38 0 -45 3
-41 18 3 9 8 29 11 45 l6 27 -64 0 c-68 0 -76 -6 -76 -56 0 -29 -15 -37 -62
-32 l-34 3 28 150 c19 108 32 153 44 162 12 9 56 13 134 13 104 0 119 -2 135
-20z m897 3 c18 -16 23 -48 12 -77 -8 -22 -84 -23 -84 -1 0 12 -16 15 -87 15
-61 -1 -83 -4 -72 -10 15 -9 15 -17 3 -81 -7 -40 -11 -76 -8 -80 3 -5 32 -9
66 -9 51 0 61 3 65 20 4 16 14 20 50 20 42 0 45 -2 39 -22 -3 -13 -6 -31 -6
-40 0 -40 -25 -48 -159 -48 -136 0 -151 5 -151 49 0 51 43 253 57 267 22 22
250 20 275 -3z m582 1 c21 -20 20 -35 -6 -186 l-22 -128 -43 0 c-42 0 -42 0
-37 33 3 17 7 38 10 45 2 9 -15 12 -65 12 l-69 0 -6 -45 -7 -45 -43 0 -43 0
19 103 c10 56 21 122 25 146 10 73 25 81 157 81 91 0 118 -3 130 -16z m577 6
c66 0 73 -16 54 -115 -16 -84 -27 -105 -56 -105 -23 0 -24 -10 -4 -57 8 -19
15 -37 15 -40 0 -2 -19 -3 -42 -1 -39 3 -42 6 -57 46 l-15 43 -61 -3 c-51 -3
-60 -6 -63 -23 -9 -63 -11 -65 -53 -65 -39 0 -40 1 -35 28 3 15 15 79 26 142
32 185 14 164 137 156 58 -3 128 -6 154 -6z"/>
<path d="M2175 3924 c-122 -22 -235 -51 -402 -105 -156 -51 -206 -78 -121 -66
107 15 331 -25 571 -102 291 -93 305 -94 832 -98 l460 -3 -25 20 c-182 153
-553 304 -870 355 -117 19 -337 18 -445 -1z"/>
<path d="M340 2775 c0 -2 27 -23 60 -45 57 -39 60 -43 55 -73 -21 -123 -45
-286 -45 -304 l0 -23 480 0 c453 0 481 1 498 18 18 18 47 169 68 348 11 90 51
84 -572 84 -299 0 -544 -2 -544 -5z"/>
<path d="M2779 1541 c9 -6 12 -20 9 -40 l-5 -31 63 0 c66 0 74 6 74 56 0 23
-2 24 -77 24 -49 0 -73 -4 -64 -9z"/>
<path d="M4263 1543 c16 -4 18 -11 12 -39 l-6 -34 64 0 c69 0 77 6 77 56 0 24
-2 24 -82 23 -46 -1 -75 -3 -65 -6z"/>
<path d="M4900 1550 c-41 -3 -67 -7 -56 -8 15 -2 18 -8 13 -36 l-5 -34 80 -7
c44 -3 84 -3 89 2 5 5 10 27 12 49 2 37 1 39 -28 40 -16 0 -64 -2 -105 -6z"/>
<path d="M70 1555 c0 -3 10 -9 23 -14 20 -8 23 -15 19 -45 l-4 -36 81 0 c89 0
106 12 99 68 l-3 27 -107 3 c-60 1 -108 0 -108 -3z"/>
</g>
</svg>
